<?xml version="1.0" encoding="UTF-8"?>
<svg id="Calque_2" data-name="Calque 2" xmlns="http://www.w3.org/2000/svg" viewBox="0 0 90 90">
  <g id="Calque_1-2" data-name="Calque 1">
    <path d="m40.63,64.63c-1.81,1.23-3.14,2.62-4.14,4.31-.43.73-.82,1.49-1.18,2.25-.27.57-.59.94-1.28.96-1.85.08-3.69.26-5.54.35-2.33.12-4.26-.63-5.69-2.63-1.03-1.44-2.17-2.81-3.7-3.76-.63-.39-1.29-.76-1.98-1.03-.38-.15-.86-.15-1.27-.08-.73.12-.93.82-.41,1.36.53.56,1.13,1.06,1.66,1.62,1.2,1.28,1.84,2.88,2.44,4.51.66,1.79,1.13,3.68,2.5,5.13,1.61,1.7,3.64,2.29,5.85,2.4,1.63.08,3.27.02,4.91.02.87,0,.96.09.96.96,0,1.88-.02,3.77.01,5.65.01.85.1,1.71.18,2.56.08.76-.06.93-.76.7-1.73-.58-3.48-1.1-5.17-1.8-3.77-1.56-7.28-3.61-10.5-6.14-4.94-3.89-8.95-8.6-11.98-14.16-1.85-3.4-3.21-7-4.18-10.77C-.02,51.59-.29,46.08.28,40.53c.41-3.99,1.41-7.85,2.87-11.6,3.04-7.78,7.85-14.19,14.3-19.35,3.2-2.56,6.71-4.62,10.47-6.19C34.57.62,41.49-.41,48.66.15c3.08.24,6.08.83,9.05,1.7,5.19,1.53,9.94,3.96,14.25,7.25,5.03,3.85,9.11,8.55,12.22,14.13,1.57,2.81,2.85,5.75,3.79,8.82,1.55,5.03,2.18,10.2,2,15.47-.1,2.94-.46,5.85-1.13,8.7-.76,3.25-1.86,6.39-3.31,9.41-1.88,3.93-4.26,7.51-7.14,10.75-3.38,3.79-7.24,6.98-11.67,9.41-1.91,1.05-3.94,1.9-5.92,2.8-.69.31-.86.16-.86-.59,0-3.45.1-6.9-.01-10.34-.17-5.21-2.22-9.51-6.36-12.7-.08-.06-.16-.1-.4-.25.42-.17.65-.32.91-.37,1.3-.25,2.61-.42,3.9-.72,5.02-1.18,9.65-3.12,13.09-7.24,2.76-3.31,3.91-7.2,3.85-11.51-.06-4.27-1.65-7.92-4.23-11.18-.54-.69-.74-1.28-.4-2.12.25-.62.35-1.32.45-1.99.41-2.71.8-5.43.11-8.15-.12-.47-.34-.91-.54-1.35-.37-.81-.99-1.06-1.88-.96-4.01.45-7.38,2.17-10.15,5.14-.31.33-.61.49-1.08.33-3.48-1.15-7.04-1.66-10.7-1.65-2.71.01-5.36.45-7.99,1.02-.63.14-1.26.33-1.85.58-.48.2-.82.12-1.15-.25-1.43-1.59-3.12-2.8-5.01-3.74-1.8-.89-3.72-1.25-5.69-1.45-.82-.08-1.29.58-1.7,1.81-.82,2.45-.63,4.97-.24,7.47.2,1.33.54,2.63.75,3.95.05.31-.1.74-.3.99-1.55,1.92-2.83,4.01-3.61,6.37-.83,2.5-1.16,5.07-.79,7.73.31,2.17.85,4.24,1.87,6.18,1.27,2.42,3.07,4.35,5.25,5.92,2.78,2,5.92,3.19,9.19,4.02,1.39.35,2.84.51,4.25.78.32.06.63.18,1.16.33Z"/>
  </g>
</svg>