<?xml version="1.0" encoding="UTF-8"?>
<svg id="Calque_2" data-name="Calque 2" xmlns="http://www.w3.org/2000/svg" viewBox="0 0 90 90">
  <g id="Calque_1-2" data-name="Calque 1">
    <path d="m45.06,89.99c-11.3,0-22.61.02-33.91-.01-4.82-.01-8.35-2.24-10.27-6.67-.59-1.35-.83-2.95-.83-4.44C0,56.26-.01,33.66.03,11.06.04,6.28,2.3,2.77,6.72.88,8.1.29,9.73.05,11.24.04,30.35-.01,49.46,0,68.56,0c3.37,0,6.73-.01,10.1,0,2.28.01,4.46.46,6.39,1.75,3.35,2.25,4.93,5.43,4.94,9.43,0,12.05,0,24.1,0,36.15,0,10.42,0,20.84,0,31.26,0,4.08-1.52,7.36-4.96,9.66-1.96,1.31-4.16,1.74-6.47,1.74-11.17,0-22.34,0-33.51,0h0Zm2.11-50.51c-.02-.37-.06-.68-.06-.98,0-1.07-.02-2.14.01-3.21.02-.7-.18-1-.95-.99-3.58.04-7.16.01-10.74.02-.99,0-1.1.11-1.1,1.12,0,12.8,0,25.59,0,38.39,0,1.04.11,1.14,1.16,1.14,3.45,0,6.89,0,10.34,0q1.28,0,1.28-1.29c0-6.57-.05-13.14.04-19.71.02-1.49.32-3.03.77-4.45.76-2.41,2.48-4.02,4.99-4.45,2.76-.48,5.34,0,7.26,2.31,1.55,1.86,2,4.08,2,6.43,0,6.71,0,13.41,0,20.12,0,1.01.05,1.05,1.03,1.05,3.47,0,6.95,0,10.42,0,1.28,0,1.35-.07,1.35-1.37,0-6.44,0-12.88,0-19.31,0-2.67-.06-5.33-.66-7.96-.53-2.34-1.43-4.52-2.9-6.42-2.44-3.16-5.66-4.92-9.62-5.39-3.86-.46-7.51.14-10.85,2.17-1.28.78-2.43,1.79-3.77,2.8Zm-19.31,15.09c0-6.41,0-12.82.01-19.23,0-.73-.17-1.05-.98-1.04-3.58.04-7.16.01-10.74.02-.99,0-1.09.11-1.09,1.12,0,12.79,0,25.59,0,38.38,0,1.04.11,1.15,1.15,1.15,3.5,0,7,0,10.5,0,1.15,0,1.16,0,1.16-1.17,0-6.41,0-12.82,0-19.23Zm-5.99-26.78c.69-.04,1.37-.15,2.02-.33,2.05-.56,3.4-1.89,3.84-3.96.41-1.94-.32-3.55-1.8-4.84-2.05-1.79-6-1.75-8.04-.62-2.72,1.5-3.62,4.52-2.06,7.01,1.32,2.11,3.7,2.86,6.03,2.74Z"/>
  </g>
</svg>